<svg xmlns="http://www.w3.org/2000/svg" width="15" height="16" fill="none"><g fill-rule="evenodd" clip-path="url(#clip0)" clip-rule="evenodd"><path fill="#EA4335" d="M10.4 4.517l2.117-2.067C11.218 1.241 9.525.5 7.5.5A7.494 7.494 0 00.8 4.634l2.425 1.883C3.834 4.71 5.517 3.4 7.5 3.4c1.408 0 2.359.609 2.9 1.118z"/><path fill="#4285F4" d="M14.541 6.633H7.5v2.784h4.134c-.084.692-.534 1.733-1.534 2.433l2.367 1.833c1.417-1.307 2.233-3.233 2.233-5.516 0-.617-.05-1.067-.159-1.534z"/><path fill="#FBBC05" d="M2.983 8c0-.516.092-1.017.242-1.483L.8 4.634a7.488 7.488 0 000 6.732l2.433-1.883A4.62 4.62 0 012.983 8z"/><path fill="#34A853" d="M12.468 13.683L10.1 11.85c-.632.441-1.483.75-2.6.75-1.982 0-3.666-1.31-4.266-3.118L.81 11.366A7.476 7.476 0 007.5 15.5c2.025 0 3.725-.666 4.967-1.817z"/></g><defs><clipPath id="clip0"><path fill="#fff" d="M0 0h15v15H0z" transform="translate(0 .5)"/></clipPath></defs></svg>