<svg xmlns="http://www.w3.org/2000/svg" width="18" height="19" fill="none"><path fill="#000" fill-rule="evenodd" d="M6.75 4.319a.56.56 0 01.562-.559h9a.562.562 0 01.563.559v10.062a.56.56 0 01-.563.559h-9a.566.566 0 01-.562-.559v-2.236a.56.56 0 00-.562-.559.562.562 0 00-.563.559v2.236c0 .444.178.871.494 1.185.317.315.746.492 1.194.492h9c.447 0 .876-.177 1.193-.492A1.67 1.67 0 0018 14.381V4.319c0-.445-.178-.871-.494-1.186a1.696 1.696 0 00-1.194-.49h-9c-.447 0-.876.176-1.193.49a1.674 1.674 0 00-.494 1.186v2.236a.56.56 0 00.562.559.562.562 0 00.563-.559V4.319z" clip-rule="evenodd"/><path fill="#000" fill-rule="evenodd" d="M13.336 9.746a.56.56 0 000-.792L9.96 5.6a.572.572 0 00-.614-.121.56.56 0 00-.183.913L11.58 8.79H1.687a.562.562 0 00-.562.559.56.56 0 00.562.559h9.893l-2.416 2.399a.56.56 0 000 .792.553.553 0 00.183.12.552.552 0 00.431.001.59.59 0 00.183-.121l3.375-3.354z" clip-rule="evenodd"/></svg>