<svg xmlns="http://www.w3.org/2000/svg" width="15" height="16" fill="none"><g clip-path="url(#clip0)"><path fill="#485A96" d="M14.172 15.5c.457 0 .828-.37.828-.828V1.328A.827.827 0 0014.172.5H.828A.827.827 0 000 1.328v13.344c0 .457.37.828.828.828h13.344z"/><path fill="#fff" d="M10.35 15.5V9.69h1.949l.292-2.264h-2.242V5.982c0-.655.182-1.102 1.122-1.102h1.199V2.854c-.208-.028-.92-.09-1.747-.09-1.728 0-2.912 1.055-2.912 2.993v1.67H6.057V9.69H8.01v5.81h2.338z"/></g><defs><clipPath id="clip0"><path fill="#fff" d="M0 0h15v15H0z" transform="translate(0 .5)"/></clipPath></defs></svg>