<svg xmlns="http://www.w3.org/2000/svg" width="12" height="14" fill="none"><path fill="#000" d="M6.007.031c.231 0 .456.075.634.213a.898.898 0 01.355.628.878.878 0 01-.226.678L2.328 6.517l4.284 4.975a.917.917 0 01.18.32.856.856 0 01-.08.708.933.933 0 01-.25.278.995.995 0 01-.352.187c-.13.04-.268.053-.404.04a1.055 1.055 0 01-.386-.116.952.952 0 01-.305-.25L.225 7.1A.89.89 0 010 6.512c0-.215.08-.423.226-.588L5.184.364a.99.99 0 01.368-.258c.143-.058.3-.084.455-.075z"/><path fill="#000" d="M11.007.031c.231 0 .456.075.634.213a.898.898 0 01.355.628.878.878 0 01-.226.678L7.328 6.517l4.283 4.975a.904.904 0 01.181.32.856.856 0 01-.08.708.933.933 0 01-.25.278.995.995 0 01-.352.187c-.13.04-.268.053-.404.04a1.055 1.055 0 01-.386-.116.952.952 0 01-.305-.25L5.225 7.1A.89.89 0 015 6.512c0-.215.08-.423.226-.588l4.958-5.56c.1-.112.226-.2.369-.258.142-.058.298-.084.454-.075z"/></svg>