<svg xmlns="http://www.w3.org/2000/svg" width="13" height="11" fill="none"><path fill="#fff" d="M10.98.35a1.16 1.16 0 01.833-.35c.31.003.607.133.829.364.221.231.35.545.358.874.008.33-.105.65-.314.893l-6.363 8.463c-.11.125-.242.225-.389.295a1.11 1.11 0 01-.466.11c-.16.004-.32-.027-.47-.091a1.21 1.21 0 01-.398-.28L.38 6.14a1.282 1.282 0 01-.275-.413 1.35 1.35 0 01-.018-.994 1.22 1.22 0 01.661-.703 1.136 1.136 0 01.935.018c.147.07.279.17.388.295l3.34 3.55L10.948.387A.283.283 0 0110.98.35h-.002z"/></svg>